<?xml version="1.0" encoding="utf-8"?>
<!-- Generator: Adobe Illustrator 28.2.0, SVG Export Plug-In . SVG Version: 6.00 Build 0)  -->
<svg version="1.1" id="Layer_1" xmlns="http://www.w3.org/2000/svg" xmlns:xlink="http://www.w3.org/1999/xlink" x="0px" y="0px"
	 viewBox="0 0 3800 1576" style="enable-background:new 0 0 3800 1576;" xml:space="preserve">
<style type="text/css">
	.st0{fill-rule:evenodd;clip-rule:evenodd;fill:#F8D7CD;}
	.st1{fill-rule:evenodd;clip-rule:evenodd;fill:#ED7D31;stroke:#FFFFFF;stroke-width:4.5833;stroke-miterlimit:8;}
	.st2{enable-background:new    ;}
	.st3{fill:#FFFFFF;}
	.st4{fill-rule:evenodd;clip-rule:evenodd;fill:#C48170;stroke:#FFFFFF;stroke-width:4.5833;stroke-miterlimit:8;}
	.st5{fill-rule:evenodd;clip-rule:evenodd;fill:#A5A5A5;stroke:#FFFFFF;stroke-width:4.5833;stroke-miterlimit:8;}
</style>
<g transform="translate(-435 -449)">
	<g>
		<path class="st0" d="M723,844.8h2440.5V452l785.5,785.5L3163.5,2023v-392.8H723V844.8z"/>
		<path class="st1" d="M442.5,1028.3c0-57.9,46.9-104.8,104.8-104.8h1012.3c57.9,0,104.8,46.9,104.8,104.8v419.3
			c0,57.9-46.9,104.8-104.8,104.8H547.3c-57.9,0-104.8-46.9-104.8-104.8V1028.3z"/>
		<g class="st2">
			<path class="st3" d="M699.3,1128v-95.2h64.2v11.2h-51.6v29.5h44.7v11.2h-44.7v43.3H699.3z"/>
			<path class="st3" d="M774.1,1093.5c0-12.8,3.5-22.2,10.7-28.4c5.9-5.1,13.2-7.7,21.7-7.7c9.5,0,17.2,3.1,23.2,9.3
				c6,6.2,9,14.8,9,25.7c0,8.9-1.3,15.9-4,20.9c-2.7,5.1-6.5,9-11.6,11.9c-5.1,2.8-10.6,4.2-16.7,4.2c-9.7,0-17.5-3.1-23.4-9.3
				C777,1114.1,774.1,1105.2,774.1,1093.5z M786.1,1093.5c0,8.8,1.9,15.4,5.8,19.8c3.9,4.4,8.7,6.6,14.5,6.6
				c5.8,0,10.6-2.2,14.5-6.6s5.8-11.1,5.8-20.2c0-8.5-1.9-15-5.8-19.4c-3.9-4.4-8.7-6.6-14.4-6.6c-5.8,0-10.7,2.2-14.5,6.6
				C788,1078.1,786.1,1084.7,786.1,1093.5z"/>
			<path class="st3" d="M852.2,1128v-69h10.5v10.5c2.7-4.9,5.2-8.1,7.4-9.7c2.3-1.6,4.8-2.3,7.5-2.3c3.9,0,7.9,1.3,12,3.8l-4,10.8
				c-2.9-1.7-5.7-2.5-8.6-2.5c-2.6,0-4.8,0.8-6.9,2.3c-2,1.5-3.5,3.7-4.4,6.4c-1.3,4.2-1.9,8.7-1.9,13.6v36.1H852.2z"/>
			<path class="st3" d="M896.7,1128v-69h10.5v9.7c2.2-3.4,5-6.1,8.6-8.2c3.6-2.1,7.7-3.1,12.3-3.1c5.1,0,9.3,1.1,12.6,3.2
				c3.3,2.1,5.6,5.1,6.9,8.9c5.5-8.1,12.6-12.1,21.3-12.1c6.8,0,12.1,1.9,15.8,5.7c3.7,3.8,5.5,9.6,5.5,17.5v47.3h-11.6v-43.4
				c0-4.7-0.4-8-1.1-10.1c-0.8-2.1-2.1-3.7-4.1-5c-2-1.3-4.3-1.9-7-1.9c-4.8,0-8.9,1.6-12.1,4.8c-3.2,3.2-4.8,8.4-4.8,15.5v40.1
				h-11.7v-44.8c0-5.2-1-9.1-2.9-11.7c-1.9-2.6-5-3.9-9.4-3.9c-3.3,0-6.3,0.9-9.1,2.6c-2.8,1.7-4.8,4.3-6.1,7.6
				c-1.3,3.3-1.9,8.1-1.9,14.4v35.8H896.7z"/>
			<path class="st3" d="M1052.6,1128v-10.1c-5.4,7.8-12.7,11.7-21.9,11.7c-4.1,0-7.9-0.8-11.4-2.3c-3.5-1.6-6.1-3.5-7.9-5.9
				c-1.7-2.4-2.9-5.2-3.6-8.7c-0.5-2.3-0.7-5.9-0.7-10.9V1059h11.7v38.3c0,6.1,0.2,10.2,0.7,12.3c0.7,3.1,2.3,5.5,4.7,7.2
				c2.4,1.8,5.3,2.6,8.8,2.6s6.8-0.9,9.9-2.7c3.1-1.8,5.2-4.2,6.5-7.3c1.3-3.1,1.9-7.6,1.9-13.5v-37h11.7v69H1052.6z"/>
			<path class="st3" d="M1081.2,1128v-95.2h11.7v95.2H1081.2z"/>
			<path class="st3" d="M1156,1119.5c-4.3,3.7-8.5,6.3-12.5,7.8c-4,1.5-8.3,2.3-12.9,2.3c-7.6,0-13.4-1.9-17.5-5.6
				c-4.1-3.7-6.1-8.4-6.1-14.2c0-3.4,0.8-6.5,2.3-9.3c1.5-2.8,3.5-5,6-6.7c2.5-1.7,5.3-3,8.4-3.8c2.3-0.6,5.8-1.2,10.4-1.8
				c9.4-1.1,16.4-2.5,20.8-4c0-1.6,0.1-2.6,0.1-3.1c0-4.8-1.1-8.1-3.3-10.1c-3-2.6-7.4-4-13.3-4c-5.5,0-9.6,1-12.2,2.9
				c-2.6,1.9-4.6,5.3-5.8,10.2l-11.4-1.6c1-4.9,2.7-8.8,5.1-11.9c2.4-3,5.8-5.3,10.3-6.9c4.5-1.6,9.7-2.4,15.7-2.4
				c5.9,0,10.7,0.7,14.4,2.1c3.7,1.4,6.4,3.1,8.1,5.2c1.7,2.1,2.9,4.8,3.6,8c0.4,2,0.6,5.6,0.6,10.8v15.6c0,10.9,0.2,17.7,0.7,20.6
				c0.5,2.9,1.5,5.6,3,8.3h-12.2C1157.1,1125.6,1156.3,1122.7,1156,1119.5z M1155,1093.4c-4.2,1.7-10.6,3.2-19.1,4.4
				c-4.8,0.7-8.2,1.5-10.2,2.3c-2,0.9-3.5,2.1-4.6,3.8c-1.1,1.7-1.6,3.5-1.6,5.6c0,3.1,1.2,5.7,3.5,7.8c2.4,2.1,5.8,3.1,10.4,3.1
				c4.5,0,8.5-1,12-3c3.5-2,6.1-4.7,7.7-8.1c1.3-2.6,1.9-6.5,1.9-11.7V1093.4z"/>
			<path class="st3" d="M1184.8,1128v-69h10.5v10.5c2.7-4.9,5.2-8.1,7.4-9.7c2.3-1.6,4.8-2.3,7.5-2.3c3.9,0,7.9,1.3,12,3.8l-4,10.8
				c-2.9-1.7-5.7-2.5-8.6-2.5c-2.6,0-4.8,0.8-6.9,2.3c-2,1.5-3.5,3.7-4.4,6.4c-1.3,4.2-1.9,8.7-1.9,13.6v36.1H1184.8z"/>
			<path class="st3" d="M1260,1128v-9.5l43.9-50.4c-5,0.3-9.4,0.4-13.2,0.4h-28.1v-9.5h56.4v7.7l-37.3,43.8l-7.2,8
				c5.2-0.4,10.2-0.6,14.7-0.6h31.9v10.1H1260z"/>
			<path class="st3" d="M1377.9,1128v-10.1c-5.4,7.8-12.7,11.7-21.9,11.7c-4.1,0-7.9-0.8-11.4-2.3c-3.5-1.6-6.1-3.5-7.9-5.9
				c-1.7-2.4-2.9-5.2-3.6-8.7c-0.5-2.3-0.7-5.9-0.7-10.9V1059h11.7v38.3c0,6.1,0.2,10.2,0.7,12.3c0.7,3.1,2.3,5.5,4.7,7.2
				c2.4,1.8,5.3,2.6,8.8,2.6s6.8-0.9,9.9-2.7c3.1-1.8,5.2-4.2,6.5-7.3c1.3-3.1,1.9-7.6,1.9-13.5v-37h11.7v69H1377.9z"/>
			<path class="st3" d="M1406.5,1128v-69h10.5v10.5c2.7-4.9,5.2-8.1,7.4-9.7c2.3-1.6,4.8-2.3,7.5-2.3c3.9,0,7.9,1.3,12,3.8l-4,10.8
				c-2.9-1.7-5.7-2.5-8.6-2.5c-2.6,0-4.8,0.8-6.9,2.3c-2,1.5-3.5,3.7-4.4,6.4c-1.3,4.2-1.9,8.7-1.9,13.6v36.1H1406.5z"/>
			<path class="st3" d="M765.3,1287.6v-95.2h68.8v11.2h-56.2v29.2h52.7v11.2h-52.7v32.4h58.4v11.2H765.3z"/>
			<path class="st3" d="M853.8,1287.6v-95.2h32.8c7.4,0,13.1,0.5,16.9,1.4c5.5,1.3,10.1,3.5,14,6.8c5,4.2,8.8,9.7,11.3,16.3
				c2.5,6.6,3.7,14.1,3.7,22.6c0,7.2-0.8,13.6-2.5,19.2c-1.7,5.6-3.9,10.2-6.5,13.9c-2.6,3.7-5.5,6.5-8.7,8.6
				c-3.1,2.1-6.9,3.7-11.4,4.8c-4.4,1.1-9.5,1.6-15.3,1.6H853.8z M866.4,1276.4h20.3c6.3,0,11.2-0.6,14.8-1.8
				c3.6-1.2,6.4-2.8,8.5-4.9c3-3,5.3-7,7-12c1.7-5,2.5-11.2,2.5-18.3c0-10-1.6-17.6-4.9-23c-3.3-5.3-7.2-8.9-11.9-10.7
				c-3.4-1.3-8.8-1.9-16.3-1.9h-20V1276.4z"/>
			<path class="st3" d="M945.6,1257l11.9-1c0.6,4.8,1.9,8.7,3.9,11.7c2.1,3.1,5.2,5.5,9.6,7.4c4.3,1.9,9.2,2.8,14.6,2.8
				c4.8,0,9-0.7,12.7-2.1c3.7-1.4,6.4-3.4,8.2-5.9c1.8-2.5,2.7-5.2,2.7-8.2c0-3-0.9-5.6-2.6-7.8c-1.7-2.2-4.6-4.1-8.6-5.6
				c-2.6-1-8.2-2.5-16.9-4.6c-8.7-2.1-14.9-4.1-18.4-5.9c-4.5-2.4-7.9-5.3-10.2-8.9c-2.2-3.5-3.3-7.5-3.3-11.9
				c0-4.8,1.4-9.3,4.1-13.5c2.7-4.2,6.7-7.3,11.9-9.5c5.2-2.2,11.1-3.2,17.5-3.2c7.1,0,13.3,1.1,18.7,3.4c5.4,2.3,9.5,5.6,12.4,10
				c2.9,4.4,4.5,9.4,4.7,15l-12.1,0.9c-0.6-6-2.8-10.6-6.6-13.6c-3.7-3.1-9.3-4.6-16.6-4.6c-7.6,0-13.2,1.4-16.7,4.2
				c-3.5,2.8-5.2,6.2-5.2,10.1c0,3.4,1.2,6.2,3.7,8.4c2.4,2.2,8.8,4.5,19,6.8c10.2,2.3,17.3,4.3,21.1,6.1c5.5,2.6,9.6,5.8,12.3,9.7
				c2.6,3.9,4,8.4,4,13.5c0,5.1-1.5,9.8-4.4,14.3c-2.9,4.5-7.1,8-12.5,10.5c-5.4,2.5-11.5,3.7-18.3,3.7c-8.6,0-15.8-1.3-21.7-3.8
				c-5.8-2.5-10.4-6.3-13.7-11.3C947.5,1269.1,945.7,1263.4,945.6,1257z"/>
			<path class="st3" d="M1032.5,1259v-11.8h35.9v11.8H1032.5z"/>
			<path class="st3" d="M1078.6,1257l11.9-1c0.6,4.8,1.9,8.7,3.9,11.7c2.1,3.1,5.2,5.5,9.6,7.4c4.3,1.9,9.2,2.8,14.6,2.8
				c4.8,0,9-0.7,12.7-2.1c3.7-1.4,6.4-3.4,8.2-5.9c1.8-2.5,2.7-5.2,2.7-8.2c0-3-0.9-5.6-2.6-7.8c-1.7-2.2-4.6-4.1-8.6-5.6
				c-2.6-1-8.2-2.5-16.9-4.6c-8.7-2.1-14.9-4.1-18.4-5.9c-4.5-2.4-7.9-5.3-10.2-8.9c-2.2-3.5-3.3-7.5-3.3-11.9
				c0-4.8,1.4-9.3,4.1-13.5c2.7-4.2,6.7-7.3,11.9-9.5c5.2-2.2,11.1-3.2,17.5-3.2c7.1,0,13.3,1.1,18.7,3.4c5.4,2.3,9.5,5.6,12.4,10
				c2.9,4.4,4.5,9.4,4.7,15l-12.1,0.9c-0.6-6-2.8-10.6-6.6-13.6c-3.7-3.1-9.3-4.6-16.6-4.6c-7.6,0-13.2,1.4-16.7,4.2
				c-3.5,2.8-5.2,6.2-5.2,10.1c0,3.4,1.2,6.2,3.7,8.4c2.4,2.2,8.8,4.5,19,6.8c10.2,2.3,17.3,4.3,21.1,6.1c5.5,2.6,9.6,5.8,12.3,9.7
				c2.6,3.9,4,8.4,4,13.5c0,5.1-1.5,9.8-4.4,14.3c-2.9,4.5-7.1,8-12.5,10.5c-5.4,2.5-11.5,3.7-18.3,3.7c-8.6,0-15.8-1.3-21.7-3.8
				c-5.8-2.5-10.4-6.3-13.7-11.3C1080.5,1269.1,1078.7,1263.4,1078.6,1257z"/>
			<path class="st3" d="M1217.3,1265.4l12.1,1.5c-1.9,7.1-5.4,12.5-10.6,16.4s-11.7,5.8-19.7,5.8c-10.1,0-18.1-3.1-24-9.3
				c-5.9-6.2-8.9-14.9-8.9-26.1c0-11.6,3-20.6,9-27c6-6.4,13.7-9.6,23.2-9.6c9.2,0,16.8,3.1,22.6,9.4c5.8,6.3,8.8,15.1,8.8,26.5
				c0,0.7,0,1.7-0.1,3.1h-51.4c0.4,7.6,2.6,13.4,6.4,17.4c3.9,4,8.7,6,14.4,6c4.3,0,7.9-1.1,11-3.4
				C1213.1,1273.9,1215.5,1270.3,1217.3,1265.4z M1178.9,1246.5h38.5c-0.5-5.8-2-10.2-4.4-13.1c-3.7-4.5-8.6-6.8-14.5-6.8
				c-5.4,0-9.9,1.8-13.5,5.4C1181.3,1235.7,1179.3,1240.5,1178.9,1246.5z"/>
			<path class="st3" d="M1244.1,1205.8v-13.4h11.7v13.4H1244.1z M1244.1,1287.6v-69h11.7v69H1244.1z"/>
			<path class="st3" d="M1299.1,1277.1l1.7,10.3c-3.3,0.7-6.2,1-8.8,1c-4.2,0-7.5-0.7-9.9-2c-2.3-1.3-4-3.1-4.9-5.3
				c-1-2.2-1.4-6.8-1.4-13.8v-39.7h-8.6v-9.1h8.6v-17.1l11.6-7v24.1h11.8v9.1h-11.8v40.3c0,3.3,0.2,5.5,0.6,6.4c0.4,1,1.1,1.7,2,2.3
				c0.9,0.6,2.3,0.8,4,0.8C1295.3,1277.6,1297,1277.4,1299.1,1277.1z"/>
			<path class="st3" d="M1357.7,1265.4l12.1,1.5c-1.9,7.1-5.4,12.5-10.6,16.4s-11.7,5.8-19.7,5.8c-10.1,0-18.1-3.1-24-9.3
				c-5.9-6.2-8.9-14.9-8.9-26.1c0-11.6,3-20.6,9-27c6-6.4,13.7-9.6,23.2-9.6c9.2,0,16.8,3.1,22.6,9.4c5.8,6.3,8.8,15.1,8.8,26.5
				c0,0.7,0,1.7-0.1,3.1h-51.4c0.4,7.6,2.6,13.4,6.4,17.4c3.9,4,8.7,6,14.4,6c4.3,0,7.9-1.1,11-3.4
				C1353.6,1273.9,1356,1270.3,1357.7,1265.4z M1319.4,1246.5h38.5c-0.5-5.8-2-10.2-4.4-13.1c-3.7-4.5-8.6-6.8-14.5-6.8
				c-5.4,0-9.9,1.8-13.5,5.4C1321.8,1235.7,1319.8,1240.5,1319.4,1246.5z"/>
			<path class="st3" d="M748.7,1447.2V1352h11.7v34.2c5.5-6.3,12.3-9.5,20.7-9.5c5.1,0,9.5,1,13.3,3c3.8,2,6.5,4.8,8.1,8.3
				c1.6,3.6,2.4,8.7,2.4,15.5v43.7h-11.7v-43.7c0-5.8-1.3-10.1-3.8-12.8c-2.5-2.7-6.1-4-10.7-4c-3.5,0-6.7,0.9-9.8,2.7
				c-3.1,1.8-5.2,4.2-6.5,7.3s-1.9,7.3-1.9,12.7v37.7H748.7z"/>
			<path class="st3" d="M822.7,1365.4V1352h11.7v13.4H822.7z M822.7,1447.2v-69h11.7v69H822.7z"/>
			<path class="st3" d="M852.2,1447.2v-69h10.5v9.8c5.1-7.6,12.4-11.4,22-11.4c4.2,0,8,0.7,11.5,2.2c3.5,1.5,6.1,3.5,7.8,5.9
				c1.7,2.4,2.9,5.3,3.6,8.6c0.4,2.2,0.6,6,0.6,11.4v42.4h-11.7v-42c0-4.8-0.5-8.3-1.4-10.7c-0.9-2.4-2.5-4.2-4.8-5.7
				c-2.3-1.4-5-2.1-8.2-2.1c-5,0-9.3,1.6-12.9,4.7c-3.6,3.2-5.4,9.2-5.4,18v37.7H852.2z"/>
			<path class="st3" d="M920,1447.2v-9.5l43.9-50.4c-5,0.3-9.4,0.4-13.2,0.4h-28.1v-9.5h56.4v7.7l-37.3,43.8l-7.2,8
				c5.2-0.4,10.2-0.6,14.7-0.6H981v10.1H920z"/>
			<path class="st3" d="M1037.8,1447.2v-10.1c-5.4,7.8-12.7,11.7-21.9,11.7c-4.1,0-7.9-0.8-11.4-2.3c-3.5-1.6-6.1-3.5-7.9-5.9
				c-1.7-2.4-2.9-5.2-3.6-8.7c-0.5-2.3-0.7-5.9-0.7-10.9v-42.7h11.7v38.3c0,6.1,0.2,10.2,0.7,12.3c0.7,3.1,2.3,5.5,4.7,7.2
				c2.4,1.8,5.3,2.6,8.8,2.6s6.8-0.9,9.9-2.7c3.1-1.8,5.2-4.2,6.5-7.3c1.3-3.1,1.9-7.6,1.9-13.5v-37h11.7v69H1037.8z"/>
			<path class="st3" d="M1069.4,1447.2v-59.9h-10.3v-9.1h10.3v-7.3c0-4.6,0.4-8.1,1.2-10.3c1.1-3,3.1-5.5,5.9-7.4
				c2.8-1.9,6.8-2.8,11.9-2.8c3.3,0,6.9,0.4,10.9,1.2l-1.8,10.2c-2.4-0.4-4.7-0.6-6.9-0.6c-3.6,0-6.1,0.8-7.5,2.3
				c-1.5,1.5-2.2,4.4-2.2,8.5v6.4h13.4v9.1H1081v59.9H1069.4z"/>
			<path class="st3" d="M1148.8,1447.2v-10.1c-5.4,7.8-12.7,11.7-21.9,11.7c-4.1,0-7.9-0.8-11.4-2.3c-3.5-1.6-6.1-3.5-7.9-5.9
				c-1.7-2.4-2.9-5.2-3.6-8.7c-0.5-2.3-0.7-5.9-0.7-10.9v-42.7h11.7v38.3c0,6.1,0.2,10.2,0.7,12.3c0.7,3.1,2.3,5.5,4.7,7.2
				c2.4,1.8,5.3,2.6,8.8,2.6s6.8-0.9,9.9-2.7c3.1-1.8,5.2-4.2,6.5-7.3c1.3-3.1,1.9-7.6,1.9-13.5v-37h11.7v69H1148.8z M1113,1364.7
				v-13.3h12.2v13.3H1113z M1137.3,1364.7v-13.3h12.2v13.3H1137.3z"/>
			<path class="st3" d="M1175.4,1452.9l11.4,1.7c0.5,3.5,1.8,6.1,4,7.7c2.9,2.2,6.9,3.2,11.9,3.2c5.4,0,9.6-1.1,12.5-3.2
				c2.9-2.2,4.9-5.2,6-9.1c0.6-2.4,0.9-7.4,0.8-15c-5.1,6-11.5,9-19.1,9c-9.5,0-16.8-3.4-22-10.3c-5.2-6.8-7.8-15-7.8-24.6
				c0-6.6,1.2-12.7,3.6-18.2c2.4-5.6,5.8-9.9,10.4-12.9c4.5-3,9.8-4.5,15.9-4.5c8.1,0,14.8,3.3,20.1,9.9v-8.3h10.8v59.6
				c0,10.7-1.1,18.3-3.3,22.8c-2.2,4.5-5.7,8-10.4,10.6c-4.7,2.6-10.6,3.9-17.5,3.9c-8.2,0-14.9-1.9-19.9-5.6
				C1177.7,1465.9,1175.2,1460.4,1175.4,1452.9z M1185.1,1411.5c0,9,1.8,15.7,5.4,19.8c3.6,4.2,8.1,6.2,13.5,6.2
				c5.4,0,9.9-2.1,13.5-6.2c3.6-4.1,5.5-10.6,5.5-19.5c0-8.4-1.9-14.8-5.6-19.1c-3.7-4.3-8.3-6.4-13.5-6.4c-5.2,0-9.6,2.1-13.2,6.3
				C1186.9,1396.9,1185.1,1403.2,1185.1,1411.5z"/>
			<path class="st3" d="M1298.7,1425l12.1,1.5c-1.9,7.1-5.4,12.5-10.6,16.4s-11.7,5.8-19.7,5.8c-10.1,0-18.1-3.1-24-9.3
				c-5.9-6.2-8.9-14.9-8.9-26.1c0-11.6,3-20.6,9-27c6-6.4,13.7-9.6,23.2-9.6c9.2,0,16.8,3.1,22.6,9.4c5.8,6.3,8.8,15.1,8.8,26.5
				c0,0.7,0,1.7-0.1,3.1h-51.4c0.4,7.6,2.6,13.4,6.4,17.4c3.9,4,8.7,6,14.4,6c4.3,0,7.9-1.1,11-3.4
				C1294.5,1433.5,1296.9,1429.9,1298.7,1425z M1260.3,1406.1h38.5c-0.5-5.8-2-10.2-4.4-13.1c-3.7-4.5-8.6-6.8-14.5-6.8
				c-5.4,0-9.9,1.8-13.5,5.4C1262.7,1395.3,1260.7,1400.1,1260.3,1406.1z"/>
			<path class="st3" d="M1325.5,1447.2v-69h10.5v9.8c5.1-7.6,12.4-11.4,22-11.4c4.2,0,8,0.7,11.5,2.2c3.5,1.5,6.1,3.5,7.8,5.9
				c1.7,2.4,2.9,5.3,3.6,8.6c0.4,2.2,0.6,6,0.6,11.4v42.4h-11.7v-42c0-4.8-0.5-8.3-1.4-10.7c-0.9-2.4-2.5-4.2-4.8-5.7
				c-2.3-1.4-5-2.1-8.2-2.1c-5,0-9.3,1.6-12.9,4.7c-3.6,3.2-5.4,9.2-5.4,18v37.7H1325.5z"/>
		</g>
		<path class="st4" d="M1725.5,1028.3c0-57.9,46.9-104.8,104.8-104.8h1012.3c57.9,0,104.8,46.9,104.8,104.8v419.3
			c0,57.9-46.9,104.8-104.8,104.8H1830.3c-57.9,0-104.8-46.9-104.8-104.8V1028.3z"/>
		<g class="st2">
			<path class="st3" d="M1802.9,1134.4v-78h52.6v9.2h-42.3v24.2h36.6v9.2h-36.6v35.4H1802.9z"/>
			<path class="st3" d="M1864.1,1106.1c0-10.5,2.9-18.2,8.7-23.3c4.9-4.2,10.8-6.3,17.8-6.3c7.8,0,14.1,2.5,19.1,7.6
				c4.9,5.1,7.4,12.1,7.4,21.1c0,7.3-1.1,13-3.3,17.2c-2.2,4.2-5.4,7.4-9.5,9.7c-4.2,2.3-8.7,3.5-13.7,3.5c-7.9,0-14.3-2.5-19.2-7.6
				C1866.6,1123,1864.1,1115.7,1864.1,1106.1z M1874,1106.1c0,7.2,1.6,12.7,4.7,16.3c3.2,3.6,7.1,5.4,11.9,5.4
				c4.8,0,8.7-1.8,11.9-5.4c3.2-3.6,4.7-9.1,4.7-16.6c0-7-1.6-12.3-4.8-15.9c-3.2-3.6-7.1-5.4-11.8-5.4c-4.8,0-8.8,1.8-11.9,5.4
				C1875.5,1093.5,1874,1098.9,1874,1106.1z"/>
			<path class="st3" d="M1928.2,1134.4v-56.5h8.6v8.6c2.2-4,4.2-6.7,6.1-7.9c1.9-1.3,3.9-1.9,6.1-1.9c3.2,0,6.5,1,9.8,3.1l-3.3,8.9
				c-2.3-1.4-4.7-2.1-7-2.1c-2.1,0-4,0.6-5.6,1.9c-1.7,1.3-2.9,3-3.6,5.2c-1.1,3.4-1.6,7.1-1.6,11.2v29.6H1928.2z"/>
			<path class="st3" d="M1964.6,1134.4v-56.5h8.6v7.9c1.8-2.8,4.1-5,7.1-6.7c2.9-1.7,6.3-2.5,10.1-2.5c4.2,0,7.6,0.9,10.3,2.6
				c2.7,1.7,4.6,4.2,5.7,7.3c4.5-6.6,10.3-9.9,17.5-9.9c5.6,0,9.9,1.6,12.9,4.7c3,3.1,4.5,7.9,4.5,14.3v38.8h-9.5v-35.6
				c0-3.8-0.3-6.6-0.9-8.3c-0.6-1.7-1.7-3-3.4-4.1c-1.6-1-3.5-1.5-5.7-1.5c-4,0-7.3,1.3-9.9,4c-2.6,2.6-3.9,6.9-3.9,12.7v32.8h-9.6
				v-36.7c0-4.3-0.8-7.5-2.3-9.6c-1.6-2.1-4.1-3.2-7.7-3.2c-2.7,0-5.2,0.7-7.5,2.1c-2.3,1.4-3.9,3.5-5,6.2c-1,2.7-1.5,6.7-1.5,11.8
				v29.3H1964.6z"/>
			<path class="st3" d="M2092.5,1134.4v-8.3c-4.4,6.4-10.4,9.6-17.9,9.6c-3.3,0-6.4-0.6-9.3-1.9s-5-2.9-6.4-4.8
				c-1.4-1.9-2.4-4.3-3-7.1c-0.4-1.9-0.6-4.9-0.6-8.9v-35h9.6v31.3c0,5,0.2,8.4,0.6,10.1c0.6,2.5,1.9,4.5,3.8,5.9
				c2,1.4,4.4,2.2,7.2,2.2s5.6-0.7,8.1-2.2c2.5-1.5,4.3-3.5,5.3-6c1-2.5,1.6-6.2,1.6-11v-30.3h9.6v56.5H2092.5z"/>
			<path class="st3" d="M2115.8,1134.4v-78h9.6v78H2115.8z"/>
			<path class="st3" d="M2177.1,1127.4c-3.5,3-7,5.1-10.2,6.4c-3.3,1.2-6.8,1.9-10.6,1.9c-6.2,0-11-1.5-14.3-4.6
				c-3.3-3-5-6.9-5-11.6c0-2.8,0.6-5.3,1.9-7.6c1.3-2.3,2.9-4.1,4.9-5.5s4.3-2.4,6.9-3.1c1.9-0.5,4.7-1,8.5-1.4
				c7.7-0.9,13.4-2,17.1-3.3c0-1.3,0.1-2.1,0.1-2.5c0-3.9-0.9-6.7-2.7-8.2c-2.4-2.2-6.1-3.2-10.9-3.2c-4.5,0-7.8,0.8-10,2.4
				s-3.7,4.4-4.8,8.4l-9.4-1.3c0.9-4,2.3-7.2,4.2-9.7c2-2.5,4.8-4.4,8.5-5.7c3.7-1.3,8-2,12.8-2c4.8,0,8.7,0.6,11.8,1.7
				c3,1.1,5.2,2.6,6.7,4.3c1.4,1.7,2.4,3.9,3,6.5c0.3,1.6,0.5,4.6,0.5,8.8v12.8c0,8.9,0.2,14.5,0.6,16.9c0.4,2.4,1.2,4.6,2.4,6.8
				h-10C2178.1,1132.4,2177.4,1130.1,2177.1,1127.4z M2176.3,1106c-3.5,1.4-8.7,2.6-15.6,3.6c-3.9,0.6-6.7,1.2-8.4,1.9
				c-1.6,0.7-2.9,1.7-3.8,3.1c-0.9,1.4-1.3,2.9-1.3,4.6c0,2.6,1,4.7,2.9,6.4s4.8,2.6,8.5,2.6c3.7,0,7-0.8,9.8-2.4
				c2.9-1.6,5-3.8,6.3-6.6c1-2.2,1.5-5.4,1.5-9.6V1106z"/>
			<path class="st3" d="M2200.8,1134.4v-56.5h8.6v8.6c2.2-4,4.2-6.7,6.1-7.9c1.9-1.3,3.9-1.9,6.1-1.9c3.2,0,6.5,1,9.8,3.1l-3.3,8.9
				c-2.3-1.4-4.7-2.1-7-2.1c-2.1,0-4,0.6-5.6,1.9c-1.7,1.3-2.9,3-3.6,5.2c-1.1,3.4-1.6,7.1-1.6,11.2v29.6H2200.8z"/>
			<path class="st3" d="M2267.4,1134.4v-56.5h8.6v7.9c1.8-2.8,4.1-5,7.1-6.7s6.3-2.5,10.1-2.5c4.2,0,7.6,0.9,10.3,2.6
				c2.7,1.7,4.6,4.2,5.7,7.3c4.5-6.6,10.3-9.9,17.5-9.9c5.6,0,9.9,1.6,12.9,4.7s4.5,7.9,4.5,14.3v38.8h-9.5v-35.6
				c0-3.8-0.3-6.6-0.9-8.3c-0.6-1.7-1.7-3-3.4-4.1c-1.6-1-3.5-1.5-5.7-1.5c-4,0-7.3,1.3-9.9,4c-2.6,2.6-3.9,6.9-3.9,12.7v32.8h-9.6
				v-36.7c0-4.3-0.8-7.5-2.3-9.6c-1.6-2.1-4.1-3.2-7.7-3.2c-2.7,0-5.2,0.7-7.5,2.1c-2.3,1.4-3.9,3.5-5,6.2c-1,2.7-1.5,6.7-1.5,11.8
				v29.3H2267.4z"/>
			<path class="st3" d="M2358.3,1067.4v-11h9.6v11H2358.3z M2358.3,1134.4v-56.5h9.6v56.5H2358.3z"/>
			<path class="st3" d="M2403.4,1125.8l1.4,8.5c-2.7,0.6-5.1,0.9-7.2,0.9c-3.5,0-6.2-0.6-8.1-1.6c-1.9-1.1-3.3-2.5-4-4.3
				s-1.2-5.6-1.2-11.3v-32.5h-7v-7.5h7v-14l9.5-5.7v19.7h9.6v7.5h-9.6v33.1c0,2.7,0.2,4.5,0.5,5.3c0.3,0.8,0.9,1.4,1.7,1.9
				c0.8,0.5,1.9,0.7,3.3,0.7C2400.2,1126.2,2401.6,1126.1,2403.4,1125.8z"/>
			<path class="st3" d="M2443.9,1134.4v-78h15.5l18.5,55.2c1.7,5.1,2.9,9,3.7,11.5c0.9-2.8,2.3-7,4.2-12.5l18.7-54.3h13.9v78h-10
				v-65.3l-22.7,65.3h-9.3l-22.6-66.4v66.4H2443.9z"/>
			<path class="st3" d="M2533.9,1067.4v-11h9.6v11H2533.9z M2533.9,1134.4v-56.5h9.6v56.5H2533.9z"/>
			<path class="st3" d="M2594.9,1113.7l9.4,1.2c-1,6.5-3.7,11.6-7.9,15.2c-4.2,3.7-9.4,5.5-15.6,5.5c-7.7,0-14-2.5-18.7-7.6
				c-4.7-5.1-7.1-12.3-7.1-21.7c0-6.1,1-11.4,3-16c2-4.6,5.1-8,9.2-10.3c4.1-2.3,8.6-3.4,13.5-3.4c6.1,0,11.2,1.6,15.1,4.7
				c3.9,3.1,6.4,7.5,7.5,13.2l-9.3,1.4c-0.9-3.8-2.5-6.7-4.7-8.6c-2.3-1.9-5-2.9-8.2-2.9c-4.8,0-8.7,1.7-11.8,5.2
				c-3,3.5-4.5,8.9-4.5,16.4c0,7.6,1.5,13.1,4.4,16.6c2.9,3.4,6.7,5.2,11.4,5.2c3.8,0,6.9-1.2,9.4-3.5S2594.2,1118.5,2594.9,1113.7z
				"/>
			<path class="st3" d="M2612.4,1134.4v-56.5h8.6v8.6c2.2-4,4.2-6.7,6.1-7.9c1.9-1.3,3.9-1.9,6.1-1.9c3.2,0,6.5,1,9.8,3.1l-3.3,8.9
				c-2.3-1.4-4.7-2.1-7-2.1c-2.1,0-4,0.6-5.6,1.9s-2.9,3-3.6,5.2c-1.1,3.4-1.6,7.1-1.6,11.2v29.6H2612.4z"/>
			<path class="st3" d="M2645.3,1106.1c0-10.5,2.9-18.2,8.7-23.3c4.9-4.2,10.8-6.3,17.8-6.3c7.8,0,14.1,2.5,19.1,7.6
				s7.4,12.1,7.4,21.1c0,7.3-1.1,13-3.3,17.2c-2.2,4.2-5.4,7.4-9.5,9.7c-4.2,2.3-8.7,3.5-13.7,3.5c-7.9,0-14.3-2.5-19.2-7.6
				C2647.7,1123,2645.3,1115.7,2645.3,1106.1z M2655.1,1106.1c0,7.2,1.6,12.7,4.7,16.3c3.2,3.6,7.1,5.4,11.9,5.4
				c4.8,0,8.7-1.8,11.9-5.4s4.7-9.1,4.7-16.6c0-7-1.6-12.3-4.8-15.9c-3.2-3.6-7.1-5.4-11.8-5.4c-4.8,0-8.8,1.8-11.9,5.4
				C2656.7,1093.5,2655.1,1098.9,2655.1,1106.1z"/>
			<path class="st3" d="M2705.6,1117.5l9.5-1.5c0.5,3.8,2,6.7,4.4,8.7c2.4,2,5.8,3,10.2,3c4.4,0,7.7-0.9,9.8-2.7s3.2-3.9,3.2-6.3
				c0-2.2-0.9-3.9-2.8-5.1c-1.3-0.9-4.6-1.9-9.8-3.2c-7-1.8-11.9-3.3-14.6-4.6c-2.7-1.3-4.8-3.1-6.2-5.4c-1.4-2.3-2.1-4.8-2.1-7.6
				c0-2.5,0.6-4.9,1.7-7c1.2-2.1,2.7-3.9,4.7-5.3c1.5-1.1,3.5-2,6.1-2.8s5.3-1.1,8.3-1.1c4.4,0,8.3,0.6,11.7,1.9s5.8,3,7.4,5.2
				c1.6,2.2,2.7,5.1,3.3,8.8l-9.4,1.3c-0.4-2.9-1.7-5.2-3.7-6.8c-2-1.6-4.9-2.4-8.6-2.4c-4.4,0-7.5,0.7-9.4,2.2
				c-1.9,1.5-2.8,3.2-2.8,5.1c0,1.2,0.4,2.4,1.2,3.4c0.8,1,2,1.9,3.7,2.6c1,0.4,3.8,1.2,8.5,2.4c6.8,1.8,11.5,3.3,14.2,4.4
				s4.8,2.8,6.3,5c1.5,2.2,2.3,4.9,2.3,8.2c0,3.2-0.9,6.2-2.8,9c-1.9,2.8-4.5,5-8.1,6.5c-3.5,1.5-7.5,2.3-11.9,2.3
				c-7.3,0-12.9-1.5-16.8-4.6C2709.1,1128.1,2706.7,1123.5,2705.6,1117.5z"/>
			<path class="st3" d="M2760.4,1106.1c0-10.5,2.9-18.2,8.7-23.3c4.9-4.2,10.8-6.3,17.8-6.3c7.8,0,14.1,2.5,19.1,7.6
				c4.9,5.1,7.4,12.1,7.4,21.1c0,7.3-1.1,13-3.3,17.2c-2.2,4.2-5.4,7.4-9.5,9.7c-4.2,2.3-8.7,3.5-13.7,3.5c-7.9,0-14.3-2.5-19.2-7.6
				C2762.8,1123,2760.4,1115.7,2760.4,1106.1z M2770.2,1106.1c0,7.2,1.6,12.7,4.7,16.3c3.2,3.6,7.1,5.4,11.9,5.4
				c4.8,0,8.7-1.8,11.9-5.4s4.7-9.1,4.7-16.6c0-7-1.6-12.3-4.8-15.9c-3.2-3.6-7.1-5.4-11.8-5.4c-4.8,0-8.8,1.8-11.9,5.4
				C2771.8,1093.5,2770.2,1098.9,2770.2,1106.1z"/>
			<path class="st3" d="M2826.9,1134.4v-49.1h-8.5v-7.5h8.5v-6c0-3.8,0.3-6.6,1-8.5c0.9-2.5,2.5-4.5,4.9-6c2.3-1.5,5.6-2.3,9.8-2.3
				c2.7,0,5.7,0.3,8.9,1l-1.4,8.4c-2-0.4-3.9-0.5-5.6-0.5c-2.9,0-5,0.6-6.2,1.9c-1.2,1.2-1.8,3.6-1.8,7v5.2h11v7.5h-11v49.1H2826.9z
				"/>
			<path class="st3" d="M2875.8,1125.8l1.4,8.5c-2.7,0.6-5.1,0.9-7.2,0.9c-3.5,0-6.2-0.6-8.1-1.6c-1.9-1.1-3.3-2.5-4-4.3
				s-1.2-5.6-1.2-11.3v-32.5h-7v-7.5h7v-14l9.5-5.7v19.7h9.6v7.5h-9.6v33.1c0,2.7,0.2,4.5,0.5,5.3c0.3,0.8,0.9,1.4,1.7,1.9
				c0.8,0.5,1.9,0.7,3.3,0.7C2872.6,1126.2,2874,1126.1,2875.8,1125.8z"/>
			<path class="st3" d="M1878,1265.2v-78h56.4v9.2h-46.1v23.9h43.2v9.2h-43.2v26.6h47.9v9.2H1878z"/>
			<path class="st3" d="M1942.9,1265.2l20.7-29.4l-19.1-27.1h12l8.7,13.3c1.6,2.5,2.9,4.6,3.9,6.3c1.6-2.3,3-4.4,4.3-6.2l9.5-13.4
				h11.4l-19.5,26.6l21,29.9h-11.8l-11.6-17.6l-3.1-4.7l-14.8,22.3H1942.9z"/>
			<path class="st3" d="M2040.7,1244.5l9.4,1.2c-1,6.5-3.7,11.6-7.9,15.2c-4.2,3.7-9.4,5.5-15.6,5.5c-7.7,0-14-2.5-18.7-7.6
				c-4.7-5.1-7.1-12.3-7.1-21.7c0-6.1,1-11.4,3-16s5.1-8,9.2-10.3c4.1-2.3,8.6-3.4,13.5-3.4c6.1,0,11.2,1.6,15.1,4.7
				c3.9,3.1,6.4,7.5,7.5,13.2l-9.3,1.4c-0.9-3.8-2.5-6.7-4.7-8.6c-2.3-1.9-5-2.9-8.2-2.9c-4.8,0-8.7,1.7-11.8,5.2
				c-3,3.5-4.5,8.9-4.5,16.4c0,7.6,1.5,13.1,4.4,16.6c2.9,3.4,6.7,5.2,11.4,5.2c3.8,0,6.9-1.2,9.4-3.5
				C2038.4,1252.8,2040,1249.3,2040.7,1244.5z"/>
			<path class="st3" d="M2097,1247l9.9,1.2c-1.6,5.8-4.5,10.3-8.7,13.5s-9.6,4.8-16.2,4.8c-8.3,0-14.8-2.5-19.7-7.6
				c-4.8-5.1-7.3-12.2-7.3-21.4c0-9.5,2.4-16.9,7.3-22.1c4.9-5.3,11.2-7.9,19.1-7.9c7.6,0,13.7,2.6,18.5,7.7
				c4.8,5.1,7.2,12.4,7.2,21.7c0,0.6,0,1.4-0.1,2.6H2065c0.4,6.2,2.1,11,5.3,14.3c3.2,3.3,7.1,4.9,11.8,4.9c3.5,0,6.5-0.9,9-2.8
				C2093.6,1254,2095.5,1251,2097,1247z M2065.5,1231.5h31.6c-0.4-4.8-1.6-8.3-3.6-10.7c-3.1-3.7-7-5.5-11.9-5.5
				c-4.4,0-8.1,1.5-11.1,4.4C2067.5,1222.6,2065.9,1226.6,2065.5,1231.5z"/>
			<path class="st3" d="M2118.7,1265.2v-78h9.6v78H2118.7z"/>
			<path class="st3" d="M2169.9,1236.9c0-10.5,2.9-18.2,8.7-23.3c4.9-4.2,10.8-6.3,17.8-6.3c7.8,0,14.1,2.5,19.1,7.6
				c4.9,5.1,7.4,12.1,7.4,21.1c0,7.3-1.1,13-3.3,17.2c-2.2,4.2-5.4,7.4-9.5,9.7c-4.2,2.3-8.7,3.5-13.7,3.5c-7.9,0-14.3-2.5-19.2-7.6
				C2172.3,1253.8,2169.9,1246.5,2169.9,1236.9z M2179.7,1236.9c0,7.2,1.6,12.7,4.7,16.3c3.2,3.6,7.1,5.4,11.9,5.4
				c4.8,0,8.7-1.8,11.9-5.4s4.7-9.1,4.7-16.6c0-7-1.6-12.3-4.8-15.9c-3.2-3.6-7.1-5.4-11.8-5.4c-4.8,0-8.8,1.8-11.9,5.4
				C2181.3,1224.3,2179.7,1229.7,2179.7,1236.9z"/>
			<path class="st3" d="M2270.7,1265.2v-7.1c-3.6,5.6-8.9,8.4-15.8,8.4c-4.5,0-8.6-1.2-12.4-3.7c-3.8-2.5-6.7-6-8.8-10.4
				c-2.1-4.5-3.1-9.6-3.1-15.4c0-5.6,0.9-10.8,2.8-15.4c1.9-4.6,4.7-8.1,8.5-10.6c3.8-2.4,8-3.7,12.6-3.7c3.4,0,6.4,0.7,9.1,2.2
				c2.7,1.4,4.8,3.3,6.5,5.6v-28h9.5v78H2270.7z M2240.4,1237c0,7.2,1.5,12.6,4.6,16.2s6.7,5.4,10.8,5.4c4.2,0,7.7-1.7,10.7-5.1
				c2.9-3.4,4.4-8.6,4.4-15.7c0-7.7-1.5-13.4-4.5-17s-6.7-5.4-11-5.4c-4.3,0-7.8,1.7-10.7,5.2
				C2241.9,1224,2240.4,1229.5,2240.4,1237z"/>
			<path class="st3" d="M2333.4,1247l9.9,1.2c-1.6,5.8-4.5,10.3-8.7,13.5c-4.2,3.2-9.6,4.8-16.2,4.8c-8.3,0-14.8-2.5-19.7-7.6
				c-4.8-5.1-7.3-12.2-7.3-21.4c0-9.5,2.4-16.9,7.3-22.1c4.9-5.3,11.2-7.9,19.1-7.9c7.6,0,13.7,2.6,18.5,7.7
				c4.8,5.1,7.2,12.4,7.2,21.7c0,0.6,0,1.4-0.1,2.6h-42.2c0.4,6.2,2.1,11,5.3,14.3c3.2,3.3,7.1,4.9,11.8,4.9c3.5,0,6.5-0.9,9-2.8
				C2329.9,1254,2331.9,1251,2333.4,1247z M2301.9,1231.5h31.6c-0.4-4.8-1.6-8.3-3.6-10.7c-3.1-3.7-7-5.5-11.9-5.5
				c-4.4,0-8.1,1.5-11.1,4.4C2303.9,1222.6,2302.2,1226.6,2301.9,1231.5z"/>
			<path class="st3" d="M2355.2,1265.2v-56.5h8.6v8.6c2.2-4,4.2-6.7,6.1-7.9c1.9-1.3,3.9-1.9,6.1-1.9c3.2,0,6.5,1,9.8,3.1l-3.3,8.9
				c-2.3-1.4-4.7-2.1-7-2.1c-2.1,0-4,0.6-5.6,1.9s-2.9,3-3.6,5.2c-1.1,3.4-1.6,7.1-1.6,11.2v29.6H2355.2z"/>
			<path class="st3" d="M2459.6,1234.6v-9.2l33.1-0.1v29c-5.1,4-10.3,7.1-15.7,9.1s-10.9,3.1-16.6,3.1c-7.7,0-14.6-1.6-20.9-4.9
				c-6.3-3.3-11-8-14.2-14.2c-3.2-6.2-4.8-13.1-4.8-20.8c0-7.6,1.6-14.7,4.8-21.3c3.2-6.6,7.7-11.5,13.7-14.7s12.8-4.8,20.6-4.8
				c5.6,0,10.7,0.9,15.3,2.7c4.6,1.8,8.1,4.4,10.7,7.6c2.6,3.3,4.6,7.5,5.9,12.8l-9.3,2.6c-1.2-4-2.6-7.1-4.4-9.4
				c-1.7-2.3-4.2-4.1-7.5-5.5s-6.8-2-10.8-2c-4.7,0-8.8,0.7-12.2,2.2c-3.4,1.4-6.2,3.3-8.3,5.7c-2.1,2.3-3.8,4.9-4.9,7.7
				c-2,4.8-3,10.1-3,15.7c0,7,1.2,12.8,3.6,17.5c2.4,4.7,5.9,8.2,10.5,10.4c4.6,2.3,9.4,3.4,14.6,3.4c4.5,0,8.8-0.9,13.1-2.6
				s7.5-3.6,9.7-5.5v-14.5H2459.6z"/>
			<path class="st3" d="M2503.1,1236.9c0-10.5,2.9-18.2,8.7-23.3c4.9-4.2,10.8-6.3,17.8-6.3c7.8,0,14.1,2.5,19.1,7.6
				c4.9,5.1,7.4,12.1,7.4,21.1c0,7.3-1.1,13-3.3,17.2c-2.2,4.2-5.4,7.4-9.5,9.7c-4.2,2.3-8.7,3.5-13.7,3.5c-7.9,0-14.3-2.5-19.2-7.6
				C2505.5,1253.8,2503.1,1246.5,2503.1,1236.9z M2512.9,1236.9c0,7.2,1.6,12.7,4.7,16.3c3.2,3.6,7.1,5.4,11.9,5.4
				c4.8,0,8.7-1.8,11.9-5.4s4.7-9.1,4.7-16.6c0-7-1.6-12.3-4.8-15.9c-3.2-3.6-7.1-5.4-11.8-5.4c-4.8,0-8.8,1.8-11.9,5.4
				C2514.5,1224.3,2512.9,1229.7,2512.9,1236.9z"/>
			<path class="st3" d="M2563.7,1236.9c0-10.5,2.9-18.2,8.7-23.3c4.9-4.2,10.8-6.3,17.8-6.3c7.8,0,14.1,2.5,19.1,7.6
				c4.9,5.1,7.4,12.1,7.4,21.1c0,7.3-1.1,13-3.3,17.2c-2.2,4.2-5.4,7.4-9.5,9.7c-4.2,2.3-8.7,3.5-13.7,3.5c-7.9,0-14.3-2.5-19.2-7.6
				C2566.2,1253.8,2563.7,1246.5,2563.7,1236.9z M2573.6,1236.9c0,7.2,1.6,12.7,4.7,16.3c3.2,3.6,7.1,5.4,11.9,5.4
				c4.8,0,8.7-1.8,11.9-5.4s4.7-9.1,4.7-16.6c0-7-1.6-12.3-4.8-15.9c-3.2-3.6-7.1-5.4-11.8-5.4c-4.8,0-8.8,1.8-11.9,5.4
				C2575.1,1224.3,2573.6,1229.7,2573.6,1236.9z"/>
			<path class="st3" d="M2626.1,1269.9l9.3,1.4c0.4,2.9,1.5,5,3.2,6.3c2.4,1.8,5.6,2.7,9.7,2.7c4.4,0,7.9-0.9,10.3-2.7
				c2.4-1.8,4-4.3,4.9-7.5c0.5-2,0.7-6,0.7-12.3c-4.2,4.9-9.4,7.4-15.6,7.4c-7.8,0-13.8-2.8-18-8.4c-4.3-5.6-6.4-12.3-6.4-20.2
				c0-5.4,1-10.4,2.9-14.9c2-4.6,4.8-8.1,8.5-10.6c3.7-2.5,8.1-3.7,13.1-3.7c6.7,0,12.2,2.7,16.5,8.1v-6.8h8.8v48.9
				c0,8.8-0.9,15-2.7,18.7c-1.8,3.7-4.6,6.6-8.5,8.7s-8.7,3.2-14.3,3.2c-6.7,0-12.2-1.5-16.3-4.6
				C2628,1280.6,2626,1276,2626.1,1269.9z M2634.1,1235.9c0,7.4,1.5,12.8,4.4,16.2s6.6,5.1,11.1,5.1c4.4,0,8.1-1.7,11.1-5.1
				s4.5-8.7,4.5-15.9c0-6.9-1.5-12.1-4.6-15.6s-6.8-5.3-11.1-5.3c-4.3,0-7.9,1.7-10.9,5.2C2635.6,1224,2634.1,1229.1,2634.1,1235.9z
				"/>
			<path class="st3" d="M2688.3,1265.2v-78h9.6v78H2688.3z"/>
			<path class="st3" d="M2751.4,1247l9.9,1.2c-1.6,5.8-4.5,10.3-8.7,13.5s-9.6,4.8-16.2,4.8c-8.3,0-14.8-2.5-19.7-7.6
				c-4.8-5.1-7.3-12.2-7.3-21.4c0-9.5,2.4-16.9,7.3-22.1c4.9-5.3,11.2-7.9,19.1-7.9c7.6,0,13.7,2.6,18.5,7.7
				c4.8,5.1,7.2,12.4,7.2,21.7c0,0.6,0,1.4-0.1,2.6h-42.2c0.4,6.2,2.1,11,5.3,14.3c3.2,3.3,7.1,4.9,11.8,4.9c3.5,0,6.5-0.9,9-2.8
				C2748,1254,2750,1251,2751.4,1247z M2720,1231.5h31.6c-0.4-4.8-1.6-8.3-3.6-10.7c-3.1-3.7-7-5.5-11.9-5.5
				c-4.4,0-8.1,1.5-11.1,4.4C2722,1222.6,2720.3,1226.6,2720,1231.5z"/>
			<path class="st3" d="M2769.6,1241.8v-9.6h29.4v9.6H2769.6z"/>
			<path class="st3" d="M1940,1396v-68.8h-25.7v-9.2h61.8v9.2h-25.8v68.8H1940z"/>
			<path class="st3" d="M2010.4,1389c-3.5,3-7,5.1-10.2,6.4c-3.3,1.2-6.8,1.9-10.6,1.9c-6.2,0-11-1.5-14.3-4.6c-3.3-3-5-6.9-5-11.6
				c0-2.8,0.6-5.3,1.9-7.6c1.3-2.3,2.9-4.1,4.9-5.5c2-1.4,4.3-2.4,6.9-3.1c1.9-0.5,4.7-1,8.5-1.4c7.7-0.9,13.4-2,17.1-3.3
				c0-1.3,0.1-2.1,0.1-2.5c0-3.9-0.9-6.7-2.7-8.2c-2.4-2.2-6.1-3.2-10.9-3.2c-4.5,0-7.8,0.8-10,2.4c-2.1,1.6-3.7,4.4-4.8,8.4
				l-9.4-1.3c0.9-4,2.3-7.2,4.2-9.7c2-2.5,4.8-4.4,8.5-5.7c3.7-1.3,8-2,12.8-2c4.8,0,8.7,0.6,11.8,1.7c3,1.1,5.2,2.6,6.7,4.3
				c1.4,1.7,2.4,3.9,3,6.5c0.3,1.6,0.5,4.6,0.5,8.8v12.8c0,8.9,0.2,14.5,0.6,16.9c0.4,2.4,1.2,4.6,2.4,6.8h-10
				C2011.3,1394,2010.6,1391.7,2010.4,1389z M2009.6,1367.6c-3.5,1.4-8.7,2.6-15.6,3.6c-3.9,0.6-6.7,1.2-8.4,1.9
				c-1.6,0.7-2.9,1.7-3.8,3.1c-0.9,1.4-1.3,2.9-1.3,4.6c0,2.6,1,4.7,2.9,6.4c1.9,1.7,4.8,2.6,8.5,2.6c3.7,0,7-0.8,9.8-2.4
				s5-3.8,6.3-6.6c1-2.2,1.5-5.4,1.5-9.6V1367.6z"/>
			<path class="st3" d="M2042.9,1396h-8.9v-78h9.6v27.8c4-5.1,9.2-7.6,15.5-7.6c3.5,0,6.8,0.7,9.9,2.1c3.1,1.4,5.7,3.4,7.7,5.9
				c2,2.5,3.6,5.6,4.7,9.2c1.1,3.6,1.7,7.4,1.7,11.5c0,9.7-2.4,17.2-7.2,22.5c-4.8,5.3-10.5,7.9-17.2,7.9c-6.7,0-11.9-2.8-15.7-8.4
				V1396z M2042.8,1367.3c0,6.8,0.9,11.7,2.8,14.7c3,4.9,7.1,7.4,12.2,7.4c4.2,0,7.8-1.8,10.9-5.5c3.1-3.6,4.6-9.1,4.6-16.3
				c0-7.4-1.5-12.8-4.4-16.3c-2.9-3.5-6.5-5.3-10.6-5.3c-4.2,0-7.8,1.8-10.9,5.5C2044.3,1355.2,2042.8,1360.4,2042.8,1367.3z"/>
			<path class="st3" d="M2133.4,1377.8l9.9,1.2c-1.6,5.8-4.5,10.3-8.7,13.5s-9.6,4.8-16.2,4.8c-8.3,0-14.8-2.5-19.7-7.6
				c-4.8-5.1-7.3-12.2-7.3-21.4c0-9.5,2.4-16.9,7.3-22.1c4.9-5.3,11.2-7.9,19.1-7.9c7.6,0,13.7,2.6,18.5,7.7
				c4.8,5.1,7.2,12.4,7.2,21.7c0,0.6,0,1.4-0.1,2.6h-42.2c0.4,6.2,2.1,11,5.3,14.3c3.2,3.3,7.1,4.9,11.8,4.9c3.5,0,6.5-0.9,9-2.8
				C2130,1384.8,2131.9,1381.8,2133.4,1377.8z M2102,1362.3h31.6c-0.4-4.8-1.6-8.3-3.6-10.7c-3.1-3.7-7-5.5-11.9-5.5
				c-4.4,0-8.1,1.5-11.1,4.4C2103.9,1353.4,2102.3,1357.4,2102,1362.3z"/>
			<path class="st3" d="M2155.1,1396v-78h9.6v78H2155.1z"/>
			<path class="st3" d="M2179.3,1396v-78h9.6v78H2179.3z"/>
			<path class="st3" d="M2242.5,1377.8l9.9,1.2c-1.6,5.8-4.5,10.3-8.7,13.5s-9.6,4.8-16.2,4.8c-8.3,0-14.8-2.5-19.7-7.6
				c-4.8-5.1-7.3-12.2-7.3-21.4c0-9.5,2.4-16.9,7.3-22.1c4.9-5.3,11.2-7.9,19.1-7.9c7.6,0,13.7,2.6,18.5,7.7
				c4.8,5.1,7.2,12.4,7.2,21.7c0,0.6,0,1.4-0.1,2.6h-42.2c0.4,6.2,2.1,11,5.3,14.3c3.2,3.3,7.1,4.9,11.8,4.9c3.5,0,6.5-0.9,9-2.8
				C2239,1384.8,2241,1381.8,2242.5,1377.8z M2211,1362.3h31.6c-0.4-4.8-1.6-8.3-3.6-10.7c-3.1-3.7-7-5.5-11.9-5.5
				c-4.4,0-8.1,1.5-11.1,4.4C2213,1353.4,2211.3,1357.4,2211,1362.3z"/>
			<path class="st3" d="M2264.4,1396v-56.5h8.6v8c4.2-6.2,10.1-9.3,18-9.3c3.4,0,6.5,0.6,9.4,1.8c2.9,1.2,5,2.8,6.4,4.8
				c1.4,2,2.4,4.3,3,7.1c0.4,1.8,0.5,4.9,0.5,9.3v34.8h-9.6v-34.4c0-3.9-0.4-6.8-1.1-8.8c-0.7-1.9-2.1-3.5-4-4.6
				c-1.9-1.2-4.1-1.7-6.7-1.7c-4.1,0-7.6,1.3-10.6,3.9s-4.4,7.5-4.4,14.7v30.9H2264.4z"/>
			<path class="st3" d="M2394,1377.8l9.9,1.2c-1.6,5.8-4.5,10.3-8.7,13.5s-9.6,4.8-16.2,4.8c-8.3,0-14.8-2.5-19.7-7.6
				c-4.8-5.1-7.3-12.2-7.3-21.4c0-9.5,2.4-16.9,7.3-22.1c4.9-5.3,11.2-7.9,19.1-7.9c7.6,0,13.7,2.6,18.5,7.7
				c4.8,5.1,7.2,12.4,7.2,21.7c0,0.6,0,1.4-0.1,2.6H2362c0.4,6.2,2.1,11,5.3,14.3c3.2,3.3,7.1,4.9,11.8,4.9c3.5,0,6.5-0.9,9-2.8
				C2390.6,1384.8,2392.5,1381.8,2394,1377.8z M2362.5,1362.3h31.6c-0.4-4.8-1.6-8.3-3.6-10.7c-3.1-3.7-7-5.5-11.9-5.5
				c-4.4,0-8.1,1.5-11.1,4.4C2364.5,1353.4,2362.8,1357.4,2362.5,1362.3z"/>
			<path class="st3" d="M2415.8,1396v-56.5h8.6v8.6c2.2-4,4.2-6.7,6.1-7.9c1.9-1.3,3.9-1.9,6.1-1.9c3.2,0,6.5,1,9.8,3.1l-3.3,8.9
				c-2.3-1.4-4.7-2.1-7-2.1c-2.1,0-4,0.6-5.6,1.9s-2.9,3-3.6,5.2c-1.1,3.4-1.6,7.1-1.6,11.2v29.6H2415.8z"/>
			<path class="st3" d="M2448.4,1379.1l9.5-1.5c0.5,3.8,2,6.7,4.4,8.7c2.4,2,5.8,3,10.2,3c4.4,0,7.7-0.9,9.8-2.7s3.2-3.9,3.2-6.3
				c0-2.2-0.9-3.9-2.8-5.1c-1.3-0.9-4.6-1.9-9.8-3.2c-7-1.8-11.9-3.3-14.6-4.6c-2.7-1.3-4.8-3.1-6.2-5.4c-1.4-2.3-2.1-4.8-2.1-7.6
				c0-2.5,0.6-4.9,1.7-7c1.2-2.1,2.7-3.9,4.7-5.3c1.5-1.1,3.5-2,6.1-2.8s5.3-1.1,8.3-1.1c4.4,0,8.3,0.6,11.7,1.9s5.8,3,7.4,5.2
				c1.6,2.2,2.7,5.1,3.3,8.8l-9.4,1.3c-0.4-2.9-1.7-5.2-3.7-6.8c-2-1.6-4.9-2.4-8.6-2.4c-4.4,0-7.5,0.7-9.4,2.2
				c-1.9,1.5-2.8,3.2-2.8,5.1c0,1.2,0.4,2.4,1.2,3.4c0.8,1,2,1.9,3.7,2.6c1,0.4,3.8,1.2,8.5,2.4c6.8,1.8,11.5,3.3,14.2,4.4
				s4.8,2.8,6.3,5c1.5,2.2,2.3,4.9,2.3,8.2c0,3.2-0.9,6.2-2.8,9c-1.9,2.8-4.5,5-8.1,6.5c-3.5,1.5-7.5,2.3-11.9,2.3
				c-7.3,0-12.9-1.5-16.8-4.6C2451.9,1389.7,2449.4,1385.1,2448.4,1379.1z"/>
			<path class="st3" d="M2527.6,1387.4l1.4,8.5c-2.7,0.6-5.1,0.9-7.2,0.9c-3.5,0-6.2-0.6-8.1-1.6c-1.9-1.1-3.3-2.5-4-4.3
				s-1.2-5.6-1.2-11.3v-32.5h-7v-7.5h7v-14l9.5-5.7v19.7h9.6v7.5h-9.6v33.1c0,2.7,0.2,4.5,0.5,5.3c0.3,0.8,0.9,1.4,1.7,1.9
				c0.8,0.5,1.9,0.7,3.3,0.7C2524.5,1387.8,2525.9,1387.7,2527.6,1387.4z"/>
			<path class="st3" d="M2575.7,1377.8l9.9,1.2c-1.6,5.8-4.5,10.3-8.7,13.5s-9.6,4.8-16.2,4.8c-8.3,0-14.8-2.5-19.7-7.6
				c-4.8-5.1-7.3-12.2-7.3-21.4c0-9.5,2.4-16.9,7.3-22.1c4.9-5.3,11.2-7.9,19.1-7.9c7.6,0,13.7,2.6,18.5,7.7
				c4.8,5.1,7.2,12.4,7.2,21.7c0,0.6,0,1.4-0.1,2.6h-42.2c0.4,6.2,2.1,11,5.3,14.3c3.2,3.3,7.1,4.9,11.8,4.9c3.5,0,6.5-0.9,9-2.8
				C2572.3,1384.8,2574.2,1381.8,2575.7,1377.8z M2544.2,1362.3h31.6c-0.4-4.8-1.6-8.3-3.6-10.7c-3.1-3.7-7-5.5-11.9-5.5
				c-4.4,0-8.1,1.5-11.1,4.4C2546.2,1353.4,2544.6,1357.4,2544.2,1362.3z"/>
			<path class="st3" d="M2597.4,1396v-78h9.6v78H2597.4z"/>
			<path class="st3" d="M2621.6,1396v-78h9.6v78H2621.6z"/>
			<path class="st3" d="M2684.7,1377.8l9.9,1.2c-1.6,5.8-4.5,10.3-8.7,13.5s-9.6,4.8-16.2,4.8c-8.3,0-14.8-2.5-19.7-7.6
				c-4.8-5.1-7.3-12.2-7.3-21.4c0-9.5,2.4-16.9,7.3-22.1c4.9-5.3,11.2-7.9,19.1-7.9c7.6,0,13.7,2.6,18.5,7.7
				c4.8,5.1,7.2,12.4,7.2,21.7c0,0.6,0,1.4-0.1,2.6h-42.2c0.4,6.2,2.1,11,5.3,14.3c3.2,3.3,7.1,4.9,11.8,4.9c3.5,0,6.5-0.9,9-2.8
				C2681.3,1384.8,2683.3,1381.8,2684.7,1377.8z M2653.3,1362.3h31.6c-0.4-4.8-1.6-8.3-3.6-10.7c-3.1-3.7-7-5.5-11.9-5.5
				c-4.4,0-8.1,1.5-11.1,4.4C2655.3,1353.4,2653.6,1357.4,2653.3,1362.3z"/>
			<path class="st3" d="M2706.7,1396v-56.5h8.6v8c4.2-6.2,10.1-9.3,18-9.3c3.4,0,6.5,0.6,9.4,1.8c2.9,1.2,5,2.8,6.4,4.8
				c1.4,2,2.4,4.3,3,7.1c0.4,1.8,0.5,4.9,0.5,9.3v34.8h-9.6v-34.4c0-3.9-0.4-6.8-1.1-8.8c-0.7-1.9-2.1-3.5-4-4.6
				c-1.9-1.2-4.1-1.7-6.7-1.7c-4.1,0-7.6,1.3-10.6,3.9s-4.4,7.5-4.4,14.7v30.9H2706.7z"/>
		</g>
		<path class="st5" d="M3008.5,1028.3c0-57.9,46.9-104.8,104.8-104.8h1011.3c57.9,0,104.8,46.9,104.8,104.8v419.3
			c0,57.9-46.9,104.8-104.8,104.8H3113.3c-57.9,0-104.8-46.9-104.8-104.8V1028.3z"/>
		<g class="st2">
			<path class="st3" d="M3185.9,1130v-95.2h64.2v11.2h-51.6v29.5h44.7v11.2h-44.7v43.3H3185.9z"/>
			<path class="st3" d="M3260.6,1095.5c0-12.8,3.5-22.2,10.7-28.4c5.9-5.1,13.2-7.7,21.7-7.7c9.5,0,17.2,3.1,23.2,9.3
				c6,6.2,9,14.8,9,25.7c0,8.9-1.3,15.9-4,20.9c-2.7,5.1-6.5,9-11.6,11.9c-5.1,2.8-10.6,4.2-16.7,4.2c-9.7,0-17.5-3.1-23.4-9.3
				C3263.6,1116.1,3260.6,1107.2,3260.6,1095.5z M3272.6,1095.5c0,8.8,1.9,15.4,5.8,19.8c3.9,4.4,8.7,6.6,14.5,6.6
				c5.8,0,10.6-2.2,14.5-6.6s5.8-11.1,5.8-20.2c0-8.5-1.9-15-5.8-19.4c-3.9-4.4-8.7-6.6-14.4-6.6c-5.8,0-10.7,2.2-14.5,6.6
				C3274.6,1080.1,3272.6,1086.7,3272.6,1095.5z"/>
			<path class="st3" d="M3338.8,1130v-69h10.5v10.5c2.7-4.9,5.2-8.1,7.4-9.7c2.3-1.6,4.8-2.3,7.5-2.3c3.9,0,7.9,1.3,12,3.8l-4,10.8
				c-2.9-1.7-5.7-2.5-8.6-2.5c-2.6,0-4.8,0.8-6.9,2.3c-2,1.5-3.5,3.7-4.4,6.4c-1.3,4.2-1.9,8.7-1.9,13.6v36.1H3338.8z"/>
			<path class="st3" d="M3383.2,1130v-69h10.5v9.7c2.2-3.4,5-6.1,8.6-8.2c3.6-2.1,7.7-3.1,12.3-3.1c5.1,0,9.3,1.1,12.6,3.2
				c3.3,2.1,5.6,5.1,6.9,8.9c5.5-8.1,12.6-12.1,21.3-12.1c6.8,0,12.1,1.9,15.8,5.7c3.7,3.8,5.5,9.6,5.5,17.5v47.3h-11.6v-43.4
				c0-4.7-0.4-8-1.1-10.1c-0.8-2.1-2.1-3.7-4.1-5c-2-1.3-4.3-1.9-7-1.9c-4.8,0-8.9,1.6-12.1,4.8c-3.2,3.2-4.8,8.4-4.8,15.5v40.1
				h-11.7v-44.8c0-5.2-1-9.1-2.9-11.7c-1.9-2.6-5-3.9-9.4-3.9c-3.3,0-6.3,0.9-9.1,2.6c-2.8,1.7-4.8,4.3-6.1,7.6s-1.9,8.1-1.9,14.4
				v35.8H3383.2z"/>
			<path class="st3" d="M3539.2,1130v-10.1c-5.4,7.8-12.7,11.7-21.9,11.7c-4.1,0-7.9-0.8-11.4-2.3c-3.5-1.6-6.1-3.5-7.9-5.9
				c-1.7-2.4-2.9-5.2-3.6-8.7c-0.5-2.3-0.7-5.9-0.7-10.9V1061h11.7v38.3c0,6.1,0.2,10.2,0.7,12.3c0.7,3.1,2.3,5.5,4.7,7.2
				c2.4,1.8,5.3,2.6,8.8,2.6c3.5,0,6.8-0.9,9.9-2.7c3.1-1.8,5.2-4.2,6.5-7.3c1.3-3.1,1.9-7.6,1.9-13.5v-37h11.7v69H3539.2z"/>
			<path class="st3" d="M3567.7,1130v-95.2h11.7v95.2H3567.7z"/>
			<path class="st3" d="M3642.5,1121.5c-4.3,3.7-8.5,6.3-12.5,7.8c-4,1.5-8.3,2.3-12.9,2.3c-7.6,0-13.4-1.9-17.5-5.6
				c-4.1-3.7-6.1-8.4-6.1-14.2c0-3.4,0.8-6.5,2.3-9.3c1.5-2.8,3.5-5,6-6.7s5.3-3,8.4-3.8c2.3-0.6,5.8-1.2,10.4-1.8
				c9.4-1.1,16.4-2.5,20.8-4c0-1.6,0.1-2.6,0.1-3.1c0-4.8-1.1-8.1-3.3-10.1c-3-2.6-7.4-4-13.3-4c-5.5,0-9.6,1-12.2,2.9
				c-2.6,1.9-4.6,5.3-5.8,10.2l-11.4-1.6c1-4.9,2.8-8.8,5.1-11.9c2.4-3,5.8-5.3,10.3-6.9c4.5-1.6,9.7-2.4,15.7-2.4
				c5.9,0,10.7,0.7,14.4,2.1c3.7,1.4,6.4,3.1,8.1,5.2c1.7,2.1,2.9,4.8,3.6,8c0.4,2,0.6,5.6,0.6,10.8v15.6c0,10.9,0.2,17.7,0.7,20.6
				c0.5,2.9,1.5,5.6,3,8.3h-12.2C3643.7,1127.6,3642.9,1124.7,3642.5,1121.5z M3641.6,1095.4c-4.2,1.7-10.6,3.2-19.1,4.4
				c-4.8,0.7-8.2,1.5-10.2,2.3c-2,0.9-3.5,2.1-4.6,3.8c-1.1,1.7-1.6,3.5-1.6,5.6c0,3.1,1.2,5.7,3.5,7.8c2.4,2.1,5.8,3.1,10.4,3.1
				c4.5,0,8.5-1,12-3c3.5-2,6.1-4.7,7.7-8.1c1.3-2.6,1.9-6.5,1.9-11.7V1095.4z"/>
			<path class="st3" d="M3671.4,1130v-69h10.5v10.5c2.7-4.9,5.2-8.1,7.4-9.7s4.8-2.3,7.5-2.3c3.9,0,7.9,1.3,12,3.8l-4,10.8
				c-2.9-1.7-5.7-2.5-8.6-2.5c-2.6,0-4.8,0.8-6.9,2.3c-2,1.5-3.5,3.7-4.4,6.4c-1.3,4.2-1.9,8.7-1.9,13.6v36.1H3671.4z"/>
			<path class="st3" d="M3711.3,1101.4v-11.8h35.9v11.8H3711.3z"/>
			<path class="st3" d="M3761.1,1130v-95.2h35.7c7.3,0,13.1,1,17.5,2.9c4.4,1.9,7.8,4.9,10.3,8.9c2.5,4,3.7,8.2,3.7,12.6
				c0,4.1-1.1,7.9-3.3,11.5c-2.2,3.6-5.5,6.5-10,8.7c5.8,1.7,10.2,4.6,13.3,8.6c3.1,4.1,4.6,8.9,4.6,14.4c0,4.5-0.9,8.6-2.8,12.4
				c-1.9,3.8-4.2,6.8-7,8.9c-2.8,2.1-6.2,3.6-10.4,4.7c-4.2,1.1-9.3,1.6-15.4,1.6H3761.1z M3773.7,1074.8h20.6c5.6,0,9.6-0.4,12-1.1
				c3.2-1,5.6-2.5,7.2-4.7s2.4-5,2.4-8.3c0-3.2-0.8-5.9-2.3-8.3c-1.5-2.4-3.7-4-6.5-4.9c-2.8-0.9-7.6-1.3-14.5-1.3h-19V1074.8z
				 M3773.7,1118.8h23.7c4.1,0,6.9-0.2,8.6-0.5c2.9-0.5,5.3-1.4,7.3-2.6c1.9-1.2,3.6-3,4.8-5.3c1.3-2.3,1.9-5,1.9-8
				c0-3.5-0.9-6.6-2.7-9.3c-1.8-2.6-4.3-4.5-7.6-5.5c-3.2-1.1-7.9-1.6-13.9-1.6h-22V1118.8z"/>
			<path class="st3" d="M3848.5,1130v-95.2h11.7v95.2H3848.5z"/>
			<path class="st3" d="M3874,1095.5c0-12.8,3.6-22.2,10.7-28.4c5.9-5.1,13.2-7.7,21.7-7.7c9.5,0,17.2,3.1,23.2,9.3
				c6,6.2,9,14.8,9,25.7c0,8.9-1.3,15.9-4,20.9c-2.7,5.1-6.5,9-11.6,11.9c-5.1,2.8-10.6,4.2-16.7,4.2c-9.7,0-17.5-3.1-23.4-9.3
				C3877,1116.1,3874,1107.2,3874,1095.5z M3886,1095.5c0,8.8,1.9,15.4,5.8,19.8c3.9,4.4,8.7,6.6,14.5,6.6c5.8,0,10.6-2.2,14.5-6.6
				s5.8-11.1,5.8-20.2c0-8.5-1.9-15-5.8-19.4c-3.9-4.4-8.7-6.6-14.4-6.6c-5.8,0-10.7,2.2-14.5,6.6
				C3887.9,1080.1,3886,1086.7,3886,1095.5z"/>
			<path class="st3" d="M3997.3,1104.7l11.5,1.5c-1.3,7.9-4.5,14.1-9.6,18.6c-5.2,4.5-11.5,6.7-19.1,6.7c-9.4,0-17-3.1-22.8-9.3
				c-5.7-6.2-8.6-15-8.6-26.5c0-7.4,1.2-14,3.7-19.5c2.5-5.6,6.2-9.8,11.3-12.6c5-2.8,10.5-4.2,16.5-4.2c7.5,0,13.6,1.9,18.4,5.7
				c4.8,3.8,7.8,9.2,9.2,16.1l-11.4,1.8c-1.1-4.6-3-8.1-5.7-10.5c-2.8-2.3-6.1-3.5-10-3.5c-5.9,0-10.7,2.1-14.4,6.3
				c-3.7,4.2-5.5,10.9-5.5,20c0,9.3,1.8,16,5.3,20.2c3.5,4.2,8.2,6.3,13.9,6.3c4.6,0,8.4-1.4,11.5-4.2
				C3994.5,1114.9,3996.5,1110.6,3997.3,1104.7z"/>
			<path class="st3" d="M4018.9,1130v-95.2h11.7v54.3l27.7-28.1h15.1l-26.4,25.6l29,43.4h-14.4l-22.8-35.3l-8.2,7.9v27.3H4018.9z"/>
			<path class="st3" d="M3199.7,1289.6v-9.5l43.9-50.4c-5,0.3-9.4,0.4-13.2,0.4h-28.1v-9.5h56.4v7.7l-37.3,43.8l-7.2,8
				c5.2-0.4,10.2-0.6,14.7-0.6h31.9v10.1H3199.7z"/>
			<path class="st3" d="M3317.6,1289.6v-10.1c-5.4,7.8-12.7,11.7-21.9,11.7c-4.1,0-7.9-0.8-11.4-2.3c-3.5-1.6-6.1-3.5-7.9-5.9
				c-1.7-2.4-2.9-5.2-3.6-8.7c-0.5-2.3-0.7-5.9-0.7-10.9v-42.7h11.7v38.3c0,6.1,0.2,10.2,0.7,12.3c0.7,3.1,2.3,5.5,4.7,7.2
				c2.4,1.8,5.3,2.6,8.8,2.6c3.5,0,6.8-0.9,9.9-2.7c3.1-1.8,5.2-4.2,6.5-7.3c1.3-3.1,1.9-7.6,1.9-13.5v-37h11.7v69H3317.6z"/>
			<path class="st3" d="M3346.4,1289.6v-69h10.5v9.7c2.2-3.4,5-6.1,8.6-8.2c3.6-2.1,7.7-3.1,12.3-3.1c5.1,0,9.3,1.1,12.6,3.2
				c3.3,2.1,5.6,5.1,6.9,8.9c5.5-8.1,12.6-12.1,21.3-12.1c6.8,0,12.1,1.9,15.8,5.7c3.7,3.8,5.5,9.6,5.5,17.5v47.3h-11.6v-43.4
				c0-4.7-0.4-8-1.1-10.1c-0.8-2.1-2.1-3.7-4.1-5s-4.3-1.9-7-1.9c-4.8,0-8.9,1.6-12.1,4.8c-3.2,3.2-4.8,8.4-4.8,15.5v40.1h-11.7
				v-44.8c0-5.2-1-9.1-2.9-11.7s-5-3.9-9.4-3.9c-3.3,0-6.3,0.9-9.1,2.6c-2.8,1.7-4.8,4.3-6.1,7.6s-1.9,8.1-1.9,14.4v35.8H3346.4z"/>
			<path class="st3" d="M3495.9,1289.6v-95.2h68.8v11.2h-56.2v29.2h52.7v11.2h-52.7v32.4h58.4v11.2H3495.9z"/>
			<path class="st3" d="M3584.3,1289.6v-95.2h32.8c7.4,0,13.1,0.5,16.9,1.4c5.5,1.3,10.1,3.5,14,6.8c5,4.2,8.8,9.7,11.3,16.3
				c2.5,6.6,3.7,14.1,3.7,22.6c0,7.2-0.8,13.6-2.5,19.2c-1.7,5.6-3.9,10.2-6.5,13.9c-2.6,3.7-5.5,6.5-8.7,8.6
				c-3.1,2.1-6.9,3.7-11.4,4.8c-4.4,1.1-9.5,1.6-15.3,1.6H3584.3z M3596.9,1278.4h20.3c6.3,0,11.2-0.6,14.8-1.8
				c3.6-1.2,6.4-2.8,8.5-4.9c3-3,5.3-7,7-12c1.7-5,2.5-11.2,2.5-18.3c0-10-1.6-17.6-4.9-23c-3.3-5.3-7.2-8.9-11.9-10.7
				c-3.4-1.3-8.8-1.9-16.3-1.9h-20V1278.4z"/>
			<path class="st3" d="M3676.1,1259l11.9-1c0.6,4.8,1.9,8.7,3.9,11.7c2.1,3.1,5.2,5.5,9.6,7.4c4.3,1.9,9.2,2.8,14.6,2.8
				c4.8,0,9-0.7,12.7-2.1s6.4-3.4,8.2-5.9c1.8-2.5,2.7-5.2,2.7-8.2c0-3-0.9-5.6-2.6-7.8c-1.7-2.2-4.6-4.1-8.6-5.6
				c-2.6-1-8.2-2.5-16.9-4.6c-8.7-2.1-14.9-4.1-18.4-5.9c-4.5-2.4-7.9-5.3-10.2-8.9c-2.2-3.5-3.3-7.5-3.3-11.9
				c0-4.8,1.4-9.3,4.1-13.5c2.7-4.2,6.7-7.3,11.9-9.5s11.1-3.2,17.5-3.2c7.1,0,13.3,1.1,18.7,3.4c5.4,2.3,9.5,5.6,12.4,10
				s4.5,9.4,4.7,15l-12.1,0.9c-0.6-6-2.8-10.6-6.6-13.6c-3.7-3.1-9.3-4.6-16.6-4.6c-7.6,0-13.2,1.4-16.7,4.2
				c-3.5,2.8-5.2,6.2-5.2,10.1c0,3.4,1.2,6.2,3.7,8.4c2.4,2.2,8.8,4.5,19,6.8c10.2,2.3,17.3,4.3,21.1,6.1c5.5,2.6,9.6,5.8,12.3,9.7
				c2.6,3.9,4,8.4,4,13.5c0,5.1-1.5,9.8-4.4,14.3c-2.9,4.5-7.1,8-12.5,10.5c-5.4,2.5-11.6,3.7-18.3,3.7c-8.6,0-15.8-1.3-21.7-3.8
				c-5.8-2.5-10.4-6.3-13.7-11.3C3678,1271.1,3676.3,1265.4,3676.1,1259z"/>
			<path class="st3" d="M3763,1261v-11.8h35.9v11.8H3763z"/>
			<path class="st3" d="M3813.4,1289.6v-95.2h35.9c6.3,0,11.1,0.3,14.5,0.9c4.7,0.8,8.6,2.3,11.8,4.4c3.2,2.2,5.7,5.2,7.6,9.2
				c1.9,3.9,2.9,8.3,2.9,13c0,8.1-2.6,14.9-7.7,20.6c-5.2,5.6-14.5,8.4-27.9,8.4H3826v38.7H3813.4z M3826,1239.7h24.6
				c8.1,0,13.9-1.5,17.3-4.5c3.4-3,5.1-7.3,5.1-12.8c0-4-1-7.4-3-10.2c-2-2.8-4.7-4.7-8-5.6c-2.1-0.6-6-0.8-11.8-0.8H3826V1239.7z"
				/>
			<path class="st3" d="M3900.5,1289.6v-69h10.5v10.5c2.7-4.9,5.2-8.1,7.4-9.7c2.3-1.6,4.8-2.3,7.5-2.3c3.9,0,7.9,1.3,12,3.8
				l-4,10.8c-2.9-1.7-5.7-2.5-8.6-2.5c-2.6,0-4.8,0.8-6.9,2.3c-2,1.5-3.5,3.7-4.3,6.4c-1.3,4.2-1.9,8.7-1.9,13.6v36.1H3900.5z"/>
			<path class="st3" d="M3940.5,1255.1c0-12.8,3.6-22.2,10.7-28.4c5.9-5.1,13.2-7.7,21.7-7.7c9.5,0,17.2,3.1,23.2,9.3
				c6,6.2,9,14.8,9,25.7c0,8.9-1.3,15.9-4,20.9c-2.7,5.1-6.5,9-11.6,11.9c-5.1,2.8-10.6,4.2-16.7,4.2c-9.7,0-17.5-3.1-23.4-9.3
				C3943.5,1275.7,3940.5,1266.8,3940.5,1255.1z M3952.5,1255.1c0,8.8,1.9,15.4,5.8,19.8c3.9,4.4,8.7,6.6,14.5,6.6
				c5.8,0,10.6-2.2,14.5-6.6s5.8-11.1,5.8-20.2c0-8.5-1.9-15-5.8-19.4c-3.9-4.4-8.7-6.6-14.4-6.6c-5.8,0-10.7,2.2-14.5,6.6
				C3954.5,1239.7,3952.5,1246.3,3952.5,1255.1z"/>
			<path class="st3" d="M4014.3,1261v-11.8h35.9v11.8H4014.3z"/>
			<path class="st3" d="M3172.3,1476l2.2-9.9c2.3,0.6,4.2,0.9,5.5,0.9c2.4,0,4.2-0.8,5.3-2.4c1.2-1.6,1.8-5.5,1.8-11.9v-72.5h11.7
				v72.7c0,8.5-1.1,14.4-3.3,17.7c-2.8,4.3-7.5,6.5-14,6.5C3178.3,1477.2,3175.2,1476.8,3172.3,1476z M3187.1,1367.6V1354h11.7v13.6
				H3187.1z"/>
			<path class="st3" d="M3263.9,1427l12.1,1.5c-1.9,7.1-5.4,12.5-10.6,16.4c-5.2,3.9-11.7,5.8-19.7,5.8c-10.1,0-18.1-3.1-24-9.3
				c-5.9-6.2-8.9-14.9-8.9-26.1c0-11.6,3-20.6,9-27c6-6.4,13.7-9.6,23.2-9.6c9.2,0,16.8,3.1,22.6,9.4s8.8,15.1,8.8,26.5
				c0,0.7,0,1.7-0.1,3.1h-51.4c0.4,7.6,2.6,13.4,6.4,17.4c3.9,4,8.7,6,14.4,6c4.3,0,7.9-1.1,11-3.4
				C3259.8,1435.5,3262.2,1431.9,3263.9,1427z M3225.6,1408.1h38.5c-0.5-5.8-2-10.2-4.4-13.1c-3.7-4.5-8.6-6.8-14.5-6.8
				c-5.4,0-9.9,1.8-13.5,5.4C3228,1397.3,3225.9,1402.1,3225.6,1408.1z"/>
			<path class="st3" d="M3290.8,1449.2V1354h11.7v54.3l27.7-28.1h15.1l-26.4,25.6l29,43.4h-14.4l-22.8-35.3l-8.2,7.9v27.3H3290.8z"
				/>
			<path class="st3" d="M3382.7,1438.7l1.7,10.3c-3.3,0.7-6.2,1-8.8,1c-4.2,0-7.5-0.7-9.9-2c-2.3-1.3-4-3.1-4.9-5.3
				c-1-2.2-1.4-6.8-1.4-13.8v-39.7h-8.6v-9.1h8.6v-17.1l11.6-7v24.1h11.8v9.1H3371v40.3c0,3.3,0.2,5.5,0.6,6.4c0.4,1,1.1,1.7,2,2.3
				c0.9,0.6,2.3,0.8,4,0.8C3378.9,1439.2,3380.6,1439,3382.7,1438.7z"/>
			<path class="st3" d="M3431.1,1449.2V1354h11.7v34.2c5.5-6.3,12.3-9.5,20.7-9.5c5.1,0,9.5,1,13.3,3c3.8,2,6.5,4.8,8.1,8.3
				c1.6,3.6,2.4,8.7,2.4,15.5v43.7h-11.7v-43.7c0-5.8-1.3-10.1-3.8-12.8c-2.5-2.7-6.1-4-10.7-4c-3.5,0-6.7,0.9-9.8,2.7
				c-3.1,1.8-5.2,4.2-6.5,7.3s-1.9,7.3-1.9,12.7v37.7H3431.1z"/>
			<path class="st3" d="M3505.1,1367.4V1354h11.7v13.4H3505.1z M3505.1,1449.2v-69h11.7v69H3505.1z"/>
			<path class="st3" d="M3534.6,1449.2v-69h10.5v9.8c5.1-7.6,12.4-11.4,22-11.4c4.2,0,8,0.7,11.5,2.2c3.5,1.5,6.1,3.5,7.8,5.9
				s2.9,5.3,3.6,8.6c0.4,2.2,0.7,6,0.7,11.4v42.4H3579v-42c0-4.8-0.5-8.3-1.4-10.7c-0.9-2.4-2.5-4.2-4.8-5.7c-2.3-1.4-5-2.1-8.2-2.1
				c-5,0-9.3,1.6-12.9,4.7s-5.4,9.2-5.4,18v37.7H3534.6z"/>
			<path class="st3" d="M3602.4,1449.2v-9.5l43.9-50.4c-5,0.3-9.4,0.4-13.2,0.4H3605v-9.5h56.4v7.7l-37.3,43.8l-7.2,8
				c5.2-0.4,10.2-0.6,14.7-0.6h31.9v10.1H3602.4z"/>
			<path class="st3" d="M3720.3,1449.2v-10.1c-5.4,7.8-12.7,11.7-21.9,11.7c-4.1,0-7.9-0.8-11.4-2.3s-6.1-3.5-7.9-5.9
				c-1.7-2.4-2.9-5.2-3.6-8.7c-0.5-2.3-0.7-5.9-0.7-10.9v-42.7h11.7v38.3c0,6.1,0.2,10.2,0.7,12.3c0.7,3.1,2.3,5.5,4.7,7.2
				c2.4,1.8,5.3,2.6,8.8,2.6c3.5,0,6.8-0.9,9.9-2.7c3.1-1.8,5.2-4.2,6.5-7.3c1.3-3.1,1.9-7.6,1.9-13.5v-37h11.7v69H3720.3z"/>
			<path class="st3" d="M3751.8,1449.2v-59.9h-10.3v-9.1h10.3v-7.3c0-4.6,0.4-8.1,1.2-10.3c1.1-3,3.1-5.5,5.9-7.4
				c2.8-1.9,6.8-2.8,11.9-2.8c3.3,0,6.9,0.4,10.9,1.2l-1.8,10.2c-2.4-0.4-4.7-0.6-6.9-0.6c-3.6,0-6.1,0.8-7.5,2.3
				c-1.5,1.5-2.2,4.4-2.2,8.5v6.4h13.4v9.1h-13.4v59.9H3751.8z"/>
			<path class="st3" d="M3831.2,1449.2v-10.1c-5.4,7.8-12.7,11.7-21.9,11.7c-4.1,0-7.9-0.8-11.4-2.3s-6.1-3.5-7.9-5.9
				c-1.7-2.4-2.9-5.2-3.6-8.7c-0.5-2.3-0.7-5.9-0.7-10.9v-42.7h11.7v38.3c0,6.1,0.2,10.2,0.7,12.3c0.7,3.1,2.3,5.5,4.7,7.2
				c2.4,1.8,5.3,2.6,8.8,2.6c3.5,0,6.8-0.9,9.9-2.7c3.1-1.8,5.2-4.2,6.5-7.3c1.3-3.1,1.9-7.6,1.9-13.5v-37h11.7v69H3831.2z
				 M3795.5,1366.7v-13.3h12.2v13.3H3795.5z M3819.7,1366.7v-13.3h12.2v13.3H3819.7z"/>
			<path class="st3" d="M3857.8,1454.9l11.4,1.7c0.5,3.5,1.8,6.1,4,7.7c2.9,2.2,6.9,3.2,11.9,3.2c5.4,0,9.6-1.1,12.5-3.2
				c2.9-2.2,4.9-5.2,6-9.1c0.6-2.4,0.9-7.4,0.8-15c-5.1,6-11.5,9-19.1,9c-9.5,0-16.8-3.4-22-10.3c-5.2-6.8-7.8-15-7.8-24.6
				c0-6.6,1.2-12.7,3.6-18.2c2.4-5.6,5.8-9.9,10.4-12.9c4.5-3,9.8-4.5,15.9-4.5c8.1,0,14.8,3.3,20.1,9.9v-8.3h10.8v59.6
				c0,10.7-1.1,18.3-3.3,22.8c-2.2,4.5-5.7,8-10.4,10.6c-4.7,2.6-10.6,3.9-17.5,3.9c-8.2,0-14.9-1.9-19.9-5.6
				C3860.1,1467.9,3857.7,1462.4,3857.8,1454.9z M3867.5,1413.5c0,9,1.8,15.7,5.4,19.8c3.6,4.2,8.1,6.2,13.5,6.2
				c5.4,0,9.9-2.1,13.5-6.2c3.6-4.1,5.5-10.6,5.5-19.5c0-8.4-1.9-14.8-5.6-19.1c-3.7-4.3-8.3-6.4-13.5-6.4c-5.2,0-9.6,2.1-13.2,6.3
				C3869.3,1398.9,3867.5,1405.2,3867.5,1413.5z"/>
			<path class="st3" d="M3981.2,1427l12.1,1.5c-1.9,7.1-5.4,12.5-10.6,16.4s-11.7,5.8-19.7,5.8c-10.1,0-18.1-3.1-24-9.3
				c-5.9-6.2-8.9-14.9-8.9-26.1c0-11.6,3-20.6,9-27c6-6.4,13.7-9.6,23.2-9.6c9.2,0,16.8,3.1,22.6,9.4c5.8,6.3,8.8,15.1,8.8,26.5
				c0,0.7,0,1.7-0.1,3.1h-51.4c0.4,7.6,2.6,13.4,6.4,17.4c3.9,4,8.7,6,14.4,6c4.3,0,7.9-1.1,11-3.4
				C3977,1435.5,3979.4,1431.9,3981.2,1427z M3942.8,1408.1h38.5c-0.5-5.8-2-10.2-4.4-13.1c-3.7-4.5-8.6-6.8-14.5-6.8
				c-5.4,0-9.9,1.8-13.5,5.4C3945.2,1397.3,3943.2,1402.1,3942.8,1408.1z"/>
			<path class="st3" d="M4007.9,1449.2v-69h10.5v9.8c5.1-7.6,12.4-11.4,22-11.4c4.2,0,8,0.7,11.5,2.2c3.5,1.5,6.1,3.5,7.8,5.9
				s2.9,5.3,3.6,8.6c0.4,2.2,0.7,6,0.7,11.4v42.4h-11.7v-42c0-4.8-0.5-8.3-1.4-10.7c-0.9-2.4-2.5-4.2-4.8-5.7
				c-2.3-1.4-5-2.1-8.2-2.1c-5,0-9.3,1.6-12.9,4.7s-5.4,9.2-5.4,18v37.7H4007.9z"/>
		</g>
	</g>
</g>
</svg>
